<svg xmlns="http://www.w3.org/2000/svg" width="24" height="24" viewBox="0 0 24 24" fill="none"><path d="M19.7901 4.22007C16.8301 1.27007 12.0301 1.27007 9.09015 4.22007C7.02015 6.27007 6.40015 9.22007 7.20015 11.8201L2.50015 16.5201C2.17015 16.8601 1.94015 17.5301 2.01015 18.0101L2.31015 20.1901C2.42015 20.9101 3.09015 21.5901 3.81015 21.6901L5.99015 21.9901C6.47015 22.0601 7.14015 21.8401 7.48015 21.4901L8.30015 20.6701C8.50015 20.4801 8.50015 20.1601 8.30015 19.9601L6.36015 18.0201C6.07015 17.7301 6.07015 17.2501 6.36015 16.9601C6.65015 16.6701 7.13015 16.6701 7.42015 16.9601L9.37015 18.9101C9.56015 19.1001 9.88014 19.1001 10.0701 18.9101L12.1901 16.8001C14.7801 17.6101 17.7301 16.9801 19.7901 14.9301C22.7401 11.9801 22.7401 7.17007 19.7901 4.22007ZM14.5001 12.0001C13.1201 12.0001 12.0001 10.8801 12.0001 9.50007C12.0001 8.12007 13.1201 7.00007 14.5001 7.00007C15.8801 7.00007 17.0001 8.12007 17.0001 9.50007C17.0001 10.8801 15.8801 12.0001 14.5001 12.0001Z" fill="#1FCC94"></path></svg>