<svg width="24" height="24" viewBox="0 0 24 24" fill="none" xmlns="http://www.w3.org/2000/svg">
<path d="M16.8001 1.99998H14.2001C11.0001 1.99998 9.00012 3.99998 9.00012 7.19998V11.25H15.2501C15.6601 11.25 16.0001 11.59 16.0001 12C16.0001 12.41 15.6601 12.75 15.2501 12.75H9.00012V16.8C9.00012 20 11.0001 22 14.2001 22H16.7901C19.9901 22 21.9901 20 21.9901 16.8V7.19998C22.0001 3.99998 20.0001 1.99998 16.8001 1.99998Z" fill="white"></path>
<path d="M4.56012 11.25L6.63012 9.17998C6.78012 9.02998 6.85012 8.83998 6.85012 8.64998C6.85012 8.45998 6.78012 8.25998 6.63012 8.11998C6.34012 7.82998 5.86012 7.82998 5.57012 8.11998L2.22012 11.47C1.93012 11.76 1.93012 12.24 2.22012 12.53L5.57012 15.88C5.86012 16.17 6.34012 16.17 6.63012 15.88C6.92012 15.59 6.92012 15.11 6.63012 14.82L4.56012 12.75H9.00012V11.25H4.56012V11.25Z" fill="white"></path>
</svg>