<svg width="24" height="24" viewBox="0 0 24 24" fill="none" xmlns="http://www.w3.org/2000/svg">
<path d="M19.2401 5.57998H18.8401L15.4601 2.19998C15.1901 1.92998 14.7501 1.92998 14.4701 2.19998C14.2001 2.46998 14.2001 2.90998 14.4701 3.18998L16.8601 5.57998H7.14012L9.53012 3.18998C9.80012 2.91998 9.80012 2.47998 9.53012 2.19998C9.26012 1.92998 8.82012 1.92998 8.54012 2.19998L5.17012 5.57998H4.77012C3.87012 5.57998 2.00012 5.57998 2.00012 8.13998C2.00012 9.10998 2.20012 9.74998 2.62012 10.17C2.86012 10.42 3.15012 10.55 3.46012 10.62C3.75012 10.69 4.06012 10.7 4.36012 10.7H19.6401C19.9501 10.7 20.2401 10.68 20.5201 10.62C21.3601 10.42 22.0001 9.81998 22.0001 8.13998C22.0001 5.57998 20.1301 5.57998 19.2401 5.57998Z" fill="white"></path>
<path d="M19.0901 12H4.91013C4.29013 12 3.82013 12.55 3.92013 13.16L4.76013 18.3C5.04013 20.02 5.79013 22 9.12013 22H14.7301C18.1001 22 18.7001 20.31 19.0601 18.42L20.0701 13.19C20.1901 12.57 19.7201 12 19.0901 12ZM14.8801 16.05L11.6301 19.05C11.4901 19.18 11.3101 19.25 11.1201 19.25C10.9301 19.25 10.7401 19.18 10.5901 19.03L9.09013 17.53C8.80013 17.24 8.80013 16.76 9.09013 16.47C9.39013 16.18 9.86013 16.18 10.1601 16.47L11.1501 17.46L13.8701 14.95C14.1701 14.67 14.6501 14.69 14.9301 14.99C15.2101 15.3 15.1901 15.77 14.8801 16.05Z" fill="white"></path>
</svg>