<svg width="20" height="20" viewBox="0 0 20 20" fill="none" xmlns="http://www.w3.org/2000/svg">
<path d="M10 1.66663C7.81669 1.66663 6.04169 3.44163 6.04169 5.62496C6.04169 7.76663 7.71669 9.49996 9.90002 9.57496C9.96669 9.56663 10.0334 9.56663 10.0834 9.57496C10.1 9.57496 10.1084 9.57496 10.125 9.57496C10.1334 9.57496 10.1334 9.57496 10.1417 9.57496C12.275 9.49996 13.95 7.76663 13.9584 5.62496C13.9584 3.44163 12.1834 1.66663 10 1.66663Z" fill="white"></path>
<path d="M14.2334 11.7917C11.9084 10.2417 8.11669 10.2417 5.77503 11.7917C4.71669 12.5 4.13336 13.4583 4.13336 14.4833C4.13336 15.5083 4.7167 16.4583 5.7667 17.1583C6.93336 17.9417 8.46669 18.3333 10 18.3333C11.5334 18.3333 13.0667 17.9417 14.2334 17.1583C15.2834 16.45 15.8667 15.5 15.8667 14.4667C15.8584 13.4417 15.2834 12.4917 14.2334 11.7917Z" fill="white"></path>
</svg>