<svg width="24" height="24" viewBox="0 0 24 24" fill="none" xmlns="http://www.w3.org/2000/svg">
<path d="M21.5001 10.9V4.09998C21.5001 2.59998 20.8601 1.99998 19.2701 1.99998H15.2301C13.6401 1.99998 13.0001 2.59998 13.0001 4.09998V10.9C13.0001 12.4 13.6401 13 15.2301 13H19.2701C20.8601 13 21.5001 12.4 21.5001 10.9Z" fill="white"></path>
<path d="M11.0001 13.1V19.9C11.0001 21.4 10.3601 22 8.77012 22H4.73012C3.14012 22 2.50012 21.4 2.50012 19.9V13.1C2.50012 11.6 3.14012 11 4.73012 11H8.77012C10.3601 11 11.0001 11.6 11.0001 13.1Z" fill="white"></path>
<path d="M21.5001 19.9V17.1C21.5001 15.6 20.8601 15 19.2701 15H15.2301C13.6401 15 13.0001 15.6 13.0001 17.1V19.9C13.0001 21.4 13.6401 22 15.2301 22H19.2701C20.8601 22 21.5001 21.4 21.5001 19.9Z" fill="white"></path>
<path d="M11.0001 6.89998V4.09998C11.0001 2.59998 10.3601 1.99998 8.77012 1.99998H4.73012C3.14012 1.99998 2.50012 2.59998 2.50012 4.09998V6.89998C2.50012 8.39998 3.14012 8.99998 4.73012 8.99998H8.77012C10.3601 8.99998 11.0001 8.39998 11.0001 6.89998Z" fill="white"></path>
</svg>