<svg width="24" height="24" viewBox="0 0 24 24" fill="none" xmlns="http://www.w3.org/2000/svg">
<path d="M20.6202 8.44998C19.5702 3.82998 15.5402 1.74998 12.0002 1.74998C12.0002 1.74998 12.0002 1.74998 11.9902 1.74998C8.46016 1.74998 4.42016 3.81998 3.37016 8.43998C2.20016 13.6 5.36016 17.97 8.22016 20.72C9.28016 21.74 10.6402 22.25 12.0002 22.25C13.3602 22.25 14.7202 21.74 15.7702 20.72C18.6302 17.97 21.7902 13.61 20.6202 8.44998ZM12.0002 13.46C10.2602 13.46 8.85016 12.05 8.85016 10.31C8.85016 8.56999 10.2602 7.15998 12.0002 7.15998C13.7402 7.15998 15.1502 8.56999 15.1502 10.31C15.1502 12.05 13.7402 13.46 12.0002 13.46Z" fill="white"></path>
</svg>