<svg width="24" height="24" viewBox="0 0 24 24" fill="none" xmlns="http://www.w3.org/2000/svg">
<path d="M21.0854 8.09152C21.4376 8.61798 21.0027 9.24998 20.3693 9.24998H2.91502C2.40974 9.24998 2.00012 8.84037 2.00012 8.33509V6.41998C2.00012 3.97998 3.98012 1.99998 6.42012 1.99998H8.74012C10.3701 1.99998 10.8801 2.52998 11.5301 3.39998L12.9301 5.25998C13.2401 5.66998 13.2801 5.71998 13.8601 5.71998H16.6501C18.498 5.71998 20.1283 6.66065 21.0854 8.09152Z" fill="white"></path>
<path d="M21.0683 10.7497C21.5724 10.7497 21.9815 11.1574 21.9832 11.6615L22.0001 16.65C22.0001 19.6 19.6001 22 16.6501 22H7.35012C4.40012 22 2.00012 19.6 2.00012 16.65V11.6649C2.00012 11.1596 2.40973 10.75 2.915 10.75L21.0683 10.7497Z" fill="white"></path>
</svg>