<svg xmlns="http://www.w3.org/2000/svg" width="13" height="12" viewBox="0 0 13 12" fill="none"><path fill-rule="evenodd" clip-rule="evenodd" d="M9.07652 3.95406L6.87312 2.06565C6.77025 1.97547 6.64037 1.92933 6.50982 1.92926C6.42049 1.92921 6.33084 1.95074 6.24931 1.99448C6.21297 2.01392 6.17845 2.03766 6.14653 2.06565L3.94313 3.95406C3.7117 4.15241 3.68488 4.50081 3.88322 4.73224C4.08157 4.96367 4.42997 4.99049 4.6614 4.79214L5.9579 3.68098V7.9551C5.9579 8.2599 6.20499 8.50698 6.50979 8.50698C6.81458 8.50698 7.06167 8.2599 7.06167 7.9551L7.06167 3.68092L8.35824 4.79214C8.58967 4.99049 8.93808 4.96367 9.13642 4.73224C9.33477 4.50081 9.30795 4.15241 9.07652 3.95406ZM3.19849 7.44807C3.19849 7.14328 3.44558 6.89619 3.75037 6.89619H4.57819C4.88299 6.89619 5.13007 6.64911 5.13007 6.34431C5.13007 6.03952 4.88299 5.79243 4.57819 5.79243H3.75037C2.83598 5.79243 2.09473 6.53369 2.09473 7.44807V9.10372C2.09473 10.0181 2.83598 10.7594 3.75037 10.7594H9.26919C10.1836 10.7594 10.9248 10.0181 10.9248 9.10372V7.44807C10.9248 6.53369 10.1836 5.79243 9.26919 5.79243H8.44136C8.13657 5.79243 7.88948 6.03952 7.88948 6.34431C7.88948 6.64911 8.13657 6.89619 8.44136 6.89619H9.26919C9.57398 6.89619 9.82107 7.14328 9.82107 7.44807V9.10372C9.82107 9.40851 9.57398 9.6556 9.26919 9.6556H3.75037C3.44558 9.6556 3.19849 9.40851 3.19849 9.10372V7.44807Z" fill="#ADB8CC"></path></svg>